<svg xmlns="http://www.w3.org/2000/svg" viewBox="0 0 16 16">
    <defs>
        <mask id="personMask">
            <!-- White background -->
            <rect width="16" height="16" fill="white"/>
            <!-- Black person silhouette (creates the cutout), shifted down by 1 unit -->
            <path d="M8 7a2 2 0 1 0 0-4 2 2 0 0 0 0 4Zm0 1c-1.825 0-3.422.977-4.295 2.437A5.49 5.49 0 0 0 8 12.5a5.49 5.49 0 0 0 4.294-2.063A4.997 4.997 0 0 0 8 8Z" fill="black"/>
        </mask>
    </defs>

    <!-- Chat bubble with person mask applied -->
    <path d="M1 8c0-3.43 3.262-6 7-6s7 2.57 7 6-3.262 6-7 6c-.423 0-.838-.032-1.241-.094-.9.574-1.941.948-3.06 1.06a.75.75 0 0 1-.713-1.14c.232-.378.395-.804.469-1.26C1.979 11.486 1 9.86 1 8Z"
          fill="currentColor"
          mask="url(#personMask)"/>
</svg>